<?xml version="1.0" encoding="UTF-8"?>
<svg xmlns="http://www.w3.org/2000/svg" version="1.1" viewBox="0 0 218.3 211.5">
  <defs>
    <style>
      .cls-1, .cls-2 {
        fill: none;
        stroke: #fff;
        stroke-linejoin: round;
        stroke-width: 3.9px;
      }

      .cls-2 {
        stroke-linecap: round;
      }
    </style>
  </defs>
  <!-- Generator: Adobe Illustrator 28.6.0, SVG Export Plug-In . SVG Version: 1.2.0 Build 709)  -->
  <g>
    <g id="Layer_1">
      <g>
        <g>
          <path class="cls-2" d="M201.1,73.9s-38.9,59.7-38.9,100,4.7,16.7,10,16.7,6.7-2.8,6.7-8.3-5.6-5.7-5.6-19.5c0-39.1,27.8-88.9,27.8-88.9"/>
          <path class="cls-2" d="M117.7,86c.5-2.3,1.2-4.5,1.8-6.7.5-1.5.9-3.1,1.4-4.6,7.6-23.8,18.4-43.7,19.9-46.5"/>
          <path class="cls-2" d="M111.2,86.6c.7-1.9,1.5-3.9,2.3-5.8.6-1.6,1.3-3.2,2-4.7,10.5-24.4,23.6-45.1,25.3-47.8,0-.1.1-.2.1-.3h0"/>
          <path class="cls-2" d="M106.9,99.6c-2.9,9.8-4.8,19.6-4.8,28.4,0,12.7,4.7,16.7,10,16.7s6.7-2.8,6.7-8.3-5.6-5.7-5.6-19.5.5-11,1.4-16.7"/>
          <path class="cls-2" d="M80.9,73.9s-38.9,59.7-38.9,100,4.7,16.7,10,16.7,6.7-2.8,6.7-8.3-5.6-5.7-5.6-19.5c0-39.1,27.8-88.9,27.8-88.9"/>
          <path class="cls-2" d="M208.2,162.3c-6.9,0-11.3-2.8-15.2-3.3-.9-.1-1.8-.2-2.7-.2s-1.2.2-1.9.5c-2.6,1.2-4,4-3.3,6.8.3,1,.6,1.6,1.1,2.3,1.5,2.3,4.1,6.2,4.1,13,0,13.7-8.9,19.8-17.8,19.8s-21-1.4-21-28.3,1.7-8.7,0-11.3c-.6-.8-1.5-1.6-3-2.3-.6-.3-1.3-.5-1.9-.5s-1,0-1.5,0c-4.5.5-9.1.5-13.6,0-.7,0-1.4-.1-2.1-.1s-1.2.2-1.9.5c-2.6,1.2-4,4-3.3,6.8.3,1,.6,1.6,1.1,2.3,1.5,2.3,4.1,6.2,4.1,13,0,13.7-8.9,19.8-17.8,19.8s-21-1.4-21-28.3,1.7-8.7,0-11.3c-.6-.8-1.5-1.6-3-2.3-.6-.3-1.3-.5-1.9-.5s-1.6,0-2.6.2c-4,.5-8,.5-12,0-.9-.1-1.8-.2-2.7-.2s-1.2.2-1.9.5c-2.6,1.2-4,4-3.3,6.8.3,1,.6,1.6,1.1,2.3,1.5,2.3,4.1,6.2,4.1,13,0,13.7-8.9,19.8-17.8,19.8s-21-1.4-21-28.3,3-10.8-3.1-13.7c-.6-.3-1.3-.5-1.9-.5-5.3,0-10.3,3.5-14.7,3.5"/>
          <path class="cls-2" d="M190.8,10.3l-56.9,74.3-38.9,3.5v10.6l46,3.5,63.7-67.2"/>
          <path class="cls-2" d="M147.9,46.4l24.3-36.2"/>
        </g>
        <path class="cls-1" d="M130.5,72.4l17.4-26"/>
        <path class="cls-1" d="M95,91.6v-10.6l11.5-2.8"/>
        <path class="cls-2" d="M102.1,178.2l7.1,10.6,7.1-10.6"/>
        <path class="cls-1" d="M109.2,187.1v-31.8"/>
      </g>
    </g>
  </g>
</svg>