<?xml version="1.0" encoding="UTF-8"?>
<svg id="Layer_1" xmlns="http://www.w3.org/2000/svg" viewBox="0 0 218.32 211.49">
  <defs>
    <style>
      .cls-1 {
        fill: #fff;
      }
    </style>
  </defs>
  <path class="cls-1" d="M185.2,172.63c-6.55-2.55-17.65-6.82-34.94-13.51,1.4-2.96,2.74-6.41,3.75-10.37,1.11.84,2.55,1.09,3.9.65,1.55-.5,2.67-1.82,2.9-3.43.35-2.37.64-4.76.85-7.11.02-.2.01-.4-.01-.6-.39-3.1-3.91-19.77-4.75-34.59-.03-.6-.21-1.16-.49-1.65v-9.39c1.43-.34,2.62-1.39,3.14-2.89,2.1-6.01,4.41-11.43,6.84-16.13,1.32-2.55,3.03-7.05,3.86-12.07.25-1.51-.77-2.94-2.28-3.19-1.51-.25-2.94.77-3.19,2.28-.73,4.38-2.19,8.26-3.32,10.43-1.77,3.4-3.46,7.16-5.06,11.22v-18.09c0-4.67-.75-9.2-3.03-13.2,2.27-2.32,4.16-5.34,5.36-8.03,2.6,1.35,4.39,3.38,5.43,6.16.54,1.43,2.14,2.16,3.57,1.62,1.43-.54,2.16-2.14,1.62-3.57-1.64-4.36-4.74-7.63-9.03-9.58.98-6.53-1.74-12.58-8.1-17.62-18.64-14.79-34.29-7.61-49.42-.66-8.83,4.05-24.07,11.61-28.76,3.03-2.1-3.84-7.47-4.21-10.18-.77-7.4,9.37-7.95,19.42-4.59,27.27-2.37,8.59.73,19.4,3.52,24.77,2.44,4.7,4.74,10.12,6.84,16.13.53,1.5,1.71,2.55,3.14,2.89v9.2c-.35.53-.57,1.15-.61,1.84-.83,14.72-4.39,31.75-4.75,34.59-.02.2-.03.4-.01.6.21,2.35.5,4.74.85,7.12.24,1.62,1.35,2.93,2.91,3.43,1.35.44,2.79.18,3.9-.65,1.01,3.94,2.34,7.4,3.75,10.35-17.82,6.9-28.39,10.97-34.93,13.52-8.69,3.38-14.31,11.6-14.31,20.93,0,3.91,3.18,7.1,7.1,7.1h71.46c1.53,0,2.77-1.24,2.77-2.77s-1.24-2.77-2.77-2.77H36.66c-.86,0-1.55-.7-1.55-1.56,0-7.03,4.23-13.21,10.78-15.76,6.1-2.37,15.35-5.94,31.48-12.18,7.22,13.76,21.53,22.52,37.17,22.52s29.94-8.75,37.16-22.51c16.15,6.24,25.37,9.79,31.49,12.17,6.55,2.55,10.78,8.73,10.78,15.76,0,.85-.7,1.55-1.55,1.55h-71.35c-1.53,0-2.77,1.24-2.77,2.77s1.24,2.77,2.77,2.77h71.35c3.91,0,7.1-3.18,7.1-7.1,0-9.33-5.62-17.55-14.31-20.93h0ZM118.6,139.46c-2.59-1.23-5.54-1.23-8.12,0-6.9,3.28-16.22-2.79-20.61-9.12,9.14,1.17,20.43-4.66,24.72-8.27,1.46,1.23,13.24,9.67,24.6,8.29-4.29,6.19-13.63,12.41-20.59,9.1ZM86.67,58.24c6.98-7.34,12.59-5.51,19.69-3.19,4.56,1.49,9.28,3.02,14.56,2.05,6.1-1.12,10.43.18,12.08.47,5.62.99,11.28-.15,15.98-3.04,1.44,2.93,1.88,6.43,1.88,9.68v36.95c-.51.45-.86,1.05-1.04,1.62-1.42,4.47-2.58,6.23-3.14,6.88-2.2,2.55-2.04,4.98-2.38,7.27-8.22.08-13.51-9.13-21.15-11.24-2.99-.83-6.19-.1-8.56,1.89-2.36-1.99-5.57-2.72-8.56-1.89-7.77,2.15-12.89,11.4-21.26,11.24-.11-.72-.19-1.43-.25-2.11-.17-1.95-.91-3.73-2.13-5.15-1.31-1.52-2.53-4.97-3.14-6.88,0,0,0,0,0,0-.17-.55-.49-1.08-.92-1.5v-37.06c0-.67.02-1.27.06-1.93,3.29-.29,6.13-1.78,8.28-4.03h0ZM118.44,118.04c-.18-.13-.36-.27-.51-.43-1.84-1.82-4.83-1.82-6.67,0-.67.66-16.36,12.29-26.88,4.85,10.9.42,16.92-9.73,23.14-11.45,1.35-.37,2.76.01,3.77,1.03,1.82,1.84,4.81,1.84,6.63,0,1.01-1.02,2.41-1.4,3.77-1.03,6.16,1.7,12.24,11.84,23.14,11.45-7.77,5.5-18.59,1-26.37-4.42h0ZM79,115.27c.02.24.04.49.07.73-1.11.11-2.07.7-2.68,1.48.25-1.92.48-3.85.68-5.76,1.06,1.7,1.79,1.95,1.93,3.55h0ZM152,111.72c.19,1.86.42,3.73.66,5.6-.71-.81-1.68-1.26-2.66-1.33.29-2.78.55-1.94,1.99-4.27ZM68.22,25.01c.25-.32.78-.35.97,0,2.15,3.93,7.92,9.81,22.3,5.01,20.45-6.82,36.28-22.39,57.31-5.71,5.32,4.22,7.19,8.92,5.66,14.27-.85,2.93-2.89,6.31-4.95,8.44.7-5.99-.41-10.97-3.37-14.85-6.29-8.27-18.4-8.02-18.92-8.01-1.53.04-2.73,1.32-2.69,2.84.04,1.53,1.32,2.74,2.84,2.7.1,0,9.82-.16,14.37,5.84,2.73,3.6,3.16,8.87,1.29,15.68-2.08.78-4.32,1.18-6.64,1.11,1.2-3.69,1.14-7.02-.2-9.93-2.61-5.67-9.07-7.28-9.34-7.35-.35-.09-8.74-2.06-16.86,1.75-1.39.65-1.98,2.3-1.33,3.69.65,1.39,2.3,1.98,3.69,1.33,6.31-2.96,13.14-1.4,13.2-1.38.04,0,4.14,1.08,5.61,4.28.83,1.8.71,4.07-.34,6.76-3.59-.56-7.24-.52-10.88.15-4.41.81-8.76-.9-13.45-2.39-7.12-2.26-15.1-4.01-23.83,5.16-8.63,9.07-29.71-10.05-14.42-29.4h0ZM67.72,71.06c-1.71-3.29-3.67-9.33-3.75-15.08,2.43,2.57,5.49,4.67,8.9,5.68-.06.85-.08,1.73-.08,2.54v18.09c-1.6-4.06-3.3-7.82-5.06-11.22ZM73.42,142.82c-.18-1.39-.33-2.78-.46-4.16,0,0,1.88-10.3,2.88-17.24.57,1.37,3.44,4.42,6.2,6.15,5.97,13.95,20.68,21.72,30.81,16.9,1.06-.5,2.28-.51,3.36,0,10.86,5.16,25.32-4.19,30.77-16.8,3.39-2.09,5.85-5.2,6.27-6.06.99,6.82,2.85,17.04,2.85,17.05-.13,1.38-.28,2.77-.46,4.16-2.48-1.68-5.91-.32-6.56,2.64-1.41,6.49-4.08,12.87-7.98,18.42-1.6-1.81-4.36-1.91-6.09-.33-5.37,4.9-13.61,8.41-20.49,10.08-.46-.11-.92-.23-1.37-.36-3.96-1.09-12.86-4.02-19.11-9.73-1.78-1.63-4.53-1.43-6.09.33-3.78-5.37-6.53-11.74-7.98-18.42-.65-2.97-4.08-4.32-6.56-2.64h0ZM114.54,182.58c-10.45,0-20.22-4.51-27.03-12.04,1.61.26,3.22-.42,4.16-1.73,8.37,6.86,19.62,9.75,21.9,10.28.85.2,1.49.11,2.18-.06,7.21-1.73,15.72-5.36,21.66-10.23.97,1.35,2.6,1.98,4.16,1.73-6.8,7.53-16.57,12.04-27.03,12.04Z"/>
</svg>