<?xml version="1.0" encoding="UTF-8"?>
<svg id="Layer_1" xmlns="http://www.w3.org/2000/svg" viewBox="0 0 226.9 211.49">
  <defs>
    <style>
      .cls-1 {
        fill: #fff;
      }
    </style>
  </defs>
  <g>
    <path class="cls-1" d="M213.05,121.19l-12.99-8.37c.77-1.73,1.39-3.54,1.84-5.42l.7-2.94c.43-1.81-.69-3.63-2.5-4.06-1.81-.43-3.63.69-4.06,2.5l-.7,2.94c-.27,1.12-.62,2.21-1.03,3.27l-4.2-2.71c-3.39-2.18-6.86-4.2-10.4-6.05.3-2.05.39-4.13.26-6.22l-.19-2.93c-.12-1.86-1.71-3.27-3.58-3.15-1.86.12-3.27,1.72-3.15,3.58l.19,2.93c.06.88.06,1.76.02,2.63-5.87-2.68-11.9-4.91-18.05-6.7.09-1.92.03-3.86-.21-5.8l-.28-2.27c-.23-1.85-1.91-3.16-3.76-2.93-1.85.23-3.16,1.92-2.93,3.76l.28,2.27c.13,1.07.2,2.14.2,3.21-7.38-1.74-14.88-2.84-22.43-3.31-.04-1.17-.13-2.34-.27-3.5l-.21-1.73c-.23-1.85-1.91-3.16-3.76-2.94-1.85.23-3.16,1.91-2.94,3.76l.21,1.73c.1.81.16,1.62.2,2.43-17.25-.19-34.6,2.95-51.02,9.53l-42.97,17.22c-1.73.69-2.57,2.66-1.88,4.39.69,1.73,2.66,2.57,4.39,1.88l42.97-17.22c15.51-6.21,31.89-9.2,48.19-9.05-.62,4.24-2.02,8.36-4.16,12.1-16.38.66-32.73,4.64-47.99,12.08-1.68.82-2.37,2.84-1.55,4.51.82,1.67,2.84,2.37,4.51,1.55,4.3-2.09,8.68-3.9,13.14-5.41-4.42,6.26-6.89,13.8-6.89,21.69,0,20.75,16.88,37.63,37.63,37.63,4.09,0,8.14-.66,12.02-1.97,1.77-.6,2.71-2.51,2.12-4.27-.6-1.77-2.51-2.72-4.27-2.12-3.19,1.07-6.51,1.62-9.87,1.62-17.03,0-30.88-13.85-30.88-30.88,0-10.08,4.9-19.48,13.14-25.27,10.5-2.24,21.22-2.96,31.82-2.22,10.39,5.32,16.81,15.79,16.81,27.49,0,8.54-3.42,16.5-9.63,22.39-1.35,1.28-1.41,3.42-.12,4.77.66.7,1.55,1.05,2.45,1.05.83,0,1.67-.31,2.32-.93,7.57-7.18,11.73-16.87,11.73-27.29,0-9.68-3.81-18.89-10.26-25.77,18.63,3.53,36.46,11.68,51.62,24.24.33.27.37.62.37.8,0,.18-.06.53-.4.79l-30.62,23.57c-13.94,10.73-30.58,16.91-48.14,17.87-1.6.09-3.19.13-4.79.13-15.89,0-31.36-4.33-45.02-12.65l-14.29-8.7-.8-3.36c-1.53-6.45-1.22-13.18.88-19.46l.86-2.56,6.63-4.14c1.58-.99,2.06-3.07,1.07-4.65-.99-1.58-3.07-2.06-4.65-1.07l-28.93,18.09c-2.32,1.45-3.62,4.05-3.39,6.78.23,2.73,1.94,5.08,4.48,6.12l12.15,5.02,22.5,13.7c14.72,8.96,31.39,13.63,48.52,13.63,1.72,0,3.44-.05,5.16-.14,1.97-.11,3.93-.28,5.88-.51.44,2.17.26,4.44-.55,6.51-.68,1.74.19,3.69,1.92,4.37.4.16.82.23,1.22.23,1.35,0,2.63-.82,3.15-2.15,1.23-3.18,1.55-6.65.94-9.98,4.42-.85,8.76-2.01,12.99-3.47.86,2.54,1.13,5.25.79,7.93-.24,1.85,1.06,3.54,2.91,3.78.15.02.3.03.44.03,1.67,0,3.12-1.24,3.34-2.94.49-3.8.09-7.65-1.18-11.25,3.4-1.47,6.72-3.13,9.94-5,2.72,2.94,4.32,6.77,4.51,10.77.09,1.81,1.58,3.21,3.37,3.21.05,0,.11,0,.16,0,1.86-.09,3.3-1.67,3.21-3.53-.25-5.17-2.18-10.13-5.48-14.09,1.47-1.01,2.92-2.06,4.35-3.15l6.39-4.92c2.94,2.88,4.91,6.65,5.56,10.73.27,1.66,1.7,2.84,3.33,2.84.18,0,.36-.01.54-.04,1.84-.3,3.09-2.03,2.79-3.87-.84-5.19-3.24-10.01-6.84-13.8l8.86-6.82c2.89,2.95,5.11,6.53,6.44,10.43.48,1.4,1.79,2.28,3.19,2.28.36,0,.73-.06,1.09-.18,1.76-.6,2.7-2.52,2.1-4.28-1.57-4.6-4.13-8.84-7.45-12.39l4.6-3.54c1.88-1.45,2.99-3.64,3.03-6.02.04-2.37-.98-4.61-2.81-6.12-2.5-2.07-5.07-4.02-7.7-5.87,2.87-1.98,5.37-4.42,7.41-7.19l12.72,8.2c.57.36,1.2.54,1.82.54,1.11,0,2.19-.55,2.84-1.55,1.01-1.57.56-3.66-1.01-4.66h0ZM40.87,153.36l-12.39-5.12c-.07-.03-.3-.12-.33-.45-.03-.32.18-.45.25-.5l13.73-8.59c-1.02,4.99-1.13,10.13-.32,15.18l-.48-.29c-.15-.09-.3-.17-.47-.24ZM171.88,103.99c-1.23,3.42-3.23,6.55-5.89,9.1-5.38-2.22-10.89-4.04-16.49-5.46,2.16-3.2,3.74-6.72,4.69-10.41,6.03,1.8,11.95,4.06,17.7,6.77h0ZM147.67,95.47c-.98,3.85-2.8,7.46-5.4,10.57-6.55-1.24-13.19-1.93-19.86-2.08,1.69-3.75,2.81-7.73,3.34-11.8,7.38.46,14.72,1.57,21.92,3.31ZM183.03,121.76c-3.42-2.1-6.93-4.01-10.51-5.74,2.32-2.66,4.14-5.71,5.41-8.97,2.89,1.56,5.73,3.23,8.52,5.02l4.55,2.93c-2.11,2.77-4.81,5.09-7.96,6.76Z"/>
    <path class="cls-1" d="M139.16,29.8c4.41.78,8.83,1.79,13.14,3.01.31.09.61.13.92.13,1.47,0,2.83-.97,3.25-2.46.5-1.79-.54-3.66-2.33-4.16-4.52-1.27-9.16-2.33-13.78-3.16-1.83-.33-3.59.9-3.91,2.73-.33,1.83.9,3.59,2.73,3.91Z"/>
    <path class="cls-1" d="M126.29,54.06c.03,1.86,1.58,3.35,3.44,3.31.93-.02,1.85-.03,2.78-.03h0c3.56,0,7.16.13,10.71.38.08,0,.16,0,.25,0,1.75,0,3.23-1.36,3.36-3.13.13-1.86-1.26-3.47-3.12-3.61-3.71-.27-7.48-.4-11.2-.4h0c-.97,0-1.94,0-2.9.03-1.86.03-3.35,1.57-3.31,3.44h0Z"/>
    <path class="cls-1" d="M112.25,27.73s.05,0,.08,0c4.43-.1,9,.03,13.47.37.09,0,.18.01.26.01,1.75,0,3.22-1.34,3.36-3.11.14-1.86-1.25-3.48-3.1-3.62-4.69-.36-9.49-.49-14.14-.39-1.86.04-3.34,1.58-3.3,3.45.04,1.84,1.54,3.3,3.37,3.3h0Z"/>
    <path class="cls-1" d="M84.86,31.06c.24,0,.49-.03.74-.08,4.37-.98,8.84-1.75,13.28-2.29,1.85-.22,3.17-1.91,2.94-3.76-.22-1.85-1.9-3.16-3.76-2.94-4.66.57-9.35,1.37-13.94,2.4-1.82.41-2.96,2.21-2.56,4.03.35,1.57,1.74,2.64,3.29,2.64Z"/>
    <path class="cls-1" d="M189.05,49.32c3.77,2.42,7.45,5.05,10.96,7.83.62.49,1.36.73,2.09.73,1,0,1.98-.44,2.65-1.28,1.16-1.46.91-3.58-.55-4.74-3.68-2.92-7.55-5.68-11.5-8.22-1.57-1.01-3.65-.55-4.66,1.02-1.01,1.57-.55,3.65,1.02,4.66h0Z"/>
    <path class="cls-1" d="M153.86,55.43c-.3,1.84.95,3.57,2.79,3.87,4.43.72,8.87,1.66,13.22,2.78.28.07.57.11.84.11,1.5,0,2.87-1.01,3.26-2.53.47-1.8-.62-3.64-2.42-4.11-4.54-1.17-9.19-2.15-13.81-2.9-1.84-.3-3.57.95-3.87,2.79h0Z"/>
    <path class="cls-1" d="M180.73,61.73c-.63,1.75.29,3.68,2.04,4.31,4.22,1.51,8.43,3.22,12.5,5.11.46.21.94.31,1.41.31,1.27,0,2.49-.73,3.06-1.96.78-1.69.04-3.7-1.65-4.48-4.26-1.97-8.65-3.76-13.07-5.34-1.75-.63-3.68.29-4.31,2.04h0Z"/>
    <path class="cls-1" d="M165.08,37.09c4.17,1.63,8.3,3.49,12.29,5.52.49.25,1.01.37,1.53.37,1.23,0,2.41-.67,3.01-1.84.85-1.66.19-3.69-1.47-4.54-4.18-2.13-8.52-4.08-12.9-5.8-1.73-.68-3.69.18-4.37,1.91-.68,1.74.18,3.69,1.91,4.37h0Z"/>
    <path class="cls-1" d="M115.52,51.52c-4.66.51-9.35,1.24-13.95,2.17-1.83.37-3.01,2.15-2.64,3.97.32,1.6,1.73,2.71,3.3,2.71.22,0,.45-.02.67-.07,4.4-.89,8.89-1.59,13.35-2.07,1.85-.2,3.19-1.87,2.99-3.72-.2-1.85-1.86-3.19-3.72-2.99h0Z"/>
    <path class="cls-1" d="M7.98,61.91c.46,0,.92-.09,1.37-.29l12.71-5.57c1.71-.75,2.48-2.74,1.74-4.44-.75-1.71-2.74-2.48-4.44-1.74l-12.67,5.55-.07.03c-1.7.76-2.47,2.75-1.72,4.45.56,1.26,1.79,2.01,3.09,2.01h0Z"/>
    <path class="cls-1" d="M13.08,79.61l-5.04-10.75c-.79-1.69-2.8-2.41-4.49-1.62-1.69.79-2.41,2.8-1.62,4.49l5.04,10.75c.4.85.9,1.64,1.5,2.36.67.8,1.63,1.22,2.59,1.22.76,0,1.53-.26,2.16-.78,1.43-1.19,1.63-3.32.43-4.75-.23-.27-.42-.58-.58-.91h0Z"/>
    <path class="cls-1" d="M23.74,86.79c.38,0,.76-.06,1.14-.2l13.01-4.66c1.75-.63,2.67-2.56,2.04-4.31-.63-1.75-2.56-2.67-4.31-2.04l-13.01,4.66c-1.75.63-2.67,2.56-2.04,4.31.49,1.38,1.79,2.24,3.18,2.24Z"/>
    <path class="cls-1" d="M223,77.22l-.45-.22c.56-.1,1.09-.35,1.56-.74,1.42-1.2,1.6-3.33.39-4.75-3.04-3.58-6.29-7.06-9.66-10.32-1.34-1.3-3.47-1.26-4.77.08-1.3,1.34-1.26,3.47.08,4.77,2.97,2.88,5.85,5.93,8.55,9.07l-8.09-3.98c-1.67-.82-3.69-.13-4.52,1.54-.82,1.67-.13,3.69,1.54,4.52l12.4,6.1c.48.24.99.35,1.49.35,1.25,0,2.44-.69,3.03-1.88.82-1.67.13-3.69-1.54-4.52h0Z"/>
    <path class="cls-1" d="M61.62,66.26l-13.01,4.66c-1.75.63-2.67,2.56-2.04,4.31.49,1.38,1.79,2.24,3.18,2.24.38,0,.76-.06,1.14-.2l13.01-4.66c1.75-.63,2.67-2.56,2.04-4.31s-2.56-2.67-4.31-2.04Z"/>
    <path class="cls-1" d="M72.59,65.92c.49,1.38,1.79,2.24,3.18,2.24.38,0,.76-.06,1.14-.2l5.16-1.85c2.55-.91,5.15-1.77,7.74-2.54,1.79-.53,2.8-2.41,2.27-4.2-.53-1.79-2.41-2.8-4.2-2.27-2.71.81-5.43,1.7-8.09,2.65l-5.16,1.85c-1.75.63-2.67,2.56-2.04,4.31Z"/>
    <path class="cls-1" d="M58.67,39.71c.45,0,.91-.09,1.35-.28l.61-.27c3.91-1.71,7.94-3.26,11.98-4.59,1.77-.58,2.73-2.49,2.14-4.26-.58-1.77-2.5-2.73-4.26-2.14-4.24,1.4-8.47,3.02-12.57,4.82l-.61.27c-1.71.75-2.48,2.74-1.74,4.44.55,1.27,1.79,2.02,3.09,2.02Z"/>
    <path class="cls-1" d="M30.27,48.78c.55,1.27,1.79,2.02,3.09,2.02.45,0,.91-.09,1.35-.28l12.65-5.54c1.71-.75,2.48-2.74,1.74-4.44-.75-1.71-2.74-2.48-4.44-1.74l-12.65,5.54c-1.71.75-2.48,2.74-1.74,4.44Z"/>
  </g>
  <circle class="cls-1" cx="24.79" cy="66.27" r="4.5"/>
  <circle class="cls-1" cx="55.79" cy="51.27" r="4.5"/>
  <circle class="cls-1" cx="88.79" cy="39.27" r="4.5"/>
  <circle class="cls-1" cx="110.79" cy="44.27" r="4.5"/>
  <circle class="cls-1" cx="123.79" cy="35.27" r="4.5"/>
  <circle class="cls-1" cx="141.79" cy="42.27" r="4.5"/>
  <circle class="cls-1" cx="167.79" cy="46.27" r="4.5"/>
  <circle class="cls-1" cx="40.79" cy="65.27" r="4.5"/>
  <circle class="cls-1" cx="77.79" cy="53.27" r="4.5"/>
  <path class="cls-1" d="M104.01,142.11c-1.99-.64-3.7-1.74-5.07-3.13,0,6.35,4.04,12.25,10.4,14.3,7.89,2.54,16.34-1.8,18.87-9.68,2.47-7.67-1.57-15.85-9.05-18.63,1.27,2.75,1.57,5.96.57,9.08-2.11,6.57-9.16,10.18-15.73,8.07Z"/>
</svg>