<?xml version="1.0" encoding="UTF-8"?>
<svg id="Layer_1" xmlns="http://www.w3.org/2000/svg" viewBox="0 0 226.9 211.49">
  <defs>
    <style>
      .cls-1 {
        fill: #fff;
      }
    </style>
  </defs>
  <path class="cls-1" d="M175.72,156.11l-7.59,7.59c2.11,4.34,3.24,9.13,3.24,14.09v18.43c0,1.72-1.4,3.12-3.12,3.12s-3.12-1.4-3.12-3.12v-18.43c0-13.66-10.5-24.79-23.83-25.87l-12.96,45.16c-.39,1.37-1.64,2.26-3,2.26-2.07,0-3.57-1.99-3-3.98l12.62-44c-5.08-1.11-9.5-4.22-12.29-8.79-.9-1.47-.43-3.39,1.04-4.29,1.47-.9,3.39-.43,4.29,1.04,2.27,3.73,6.15,6.02,10.47,6.24.39-.06.79-.06,1.2.03,9.74.15,18.92,4.62,25.08,12.65l6.56-6.56c2.55-2.55,2.78-6.6.55-9.42-4.95-6.26-3.69-13.84,1.05-18.31,2.66-2.51,2.97-6.72.69-9.59l-4.49-5.65c-2.7-3.4-3.58-7.92-2.36-12.08l2.9-9.84c1.03-3.51-.74-7.2-4.12-8.58l-3.83-1.57c-5.03-2.06-8.28-6.91-8.28-12.34v-10.04c0-19.79-16.1-35.88-35.88-35.88h-18.72c-19.79,0-35.88,16.1-35.88,35.88v10.04c0,5.44-3.25,10.28-8.28,12.34l-3.83,1.57c-3.38,1.39-5.15,5.08-4.12,8.58l2.9,9.84c1.23,4.17.35,8.68-2.36,12.08l-4.49,5.65c-2.28,2.87-1.98,7.08.69,9.59,4.75,4.48,6,12.06,1.05,18.31-2.23,2.83-1.99,6.88.55,9.42l6.56,6.56c6.04-7.87,15.29-12.66,25.59-12.66,7.2,0,13.04-5.8,13.04-13v-.82c-12.9-6.14-21.52-18.31-23.4-31.93-.24-1.71.96-3.28,2.66-3.52,1.71-.24,3.28.96,3.52,2.66,2.4,17.44,17.52,30.6,35.16,30.6,19.57,0,35.49-15.92,35.49-35.49v-19.23c-7.29-2.64-13.66-7.73-17.81-14.84-15.05,17.48-36.53,27.65-59.29,28.56-1.72.07-3.17-1.27-3.24-2.99-.07-1.72,1.27-3.17,2.99-3.24,22.47-.9,43.64-11.54,57.71-29.98,1.47-1.93,4.49-1.51,5.38.74,3.28,8.25,10.15,14.18,18.23,16.48,1.19.33,2.15,1.41,2.26,2.76.02.26.01,21.93.01,22.06-.21,27.5-26.76,47.56-53.5,39.7-.41,5.17-2.87,10.04-7.15,13.48l18.92,14.65,11.13-8.61c1.36-1.05,3.32-.8,4.38.56,1.05,1.36.81,3.32-.56,4.38l-11.83,9.16v22.26c0,1.72-1.4,3.12-3.12,3.12s-3.12-1.4-3.12-3.12v-22.26l-21.79-16.87c-3.38,1.12-6.37.97-6.07.97-14.35,0-25.96,11.61-25.96,25.96v18.43c0,1.72-1.4,3.12-3.12,3.12s-3.12-1.4-3.12-3.12v-18.43c0-4.97,1.12-9.76,3.24-14.09l-7.59-7.59c-4.44-4.44-5.62-11.9-.77-18.04,2.3-2.91,2-7.02-.7-9.57-5-4.72-5.57-12.63-1.29-18.01l4.49-5.65c1.44-1.81,1.91-4.21,1.25-6.43l-2.9-9.84c-1.94-6.59,1.38-13.52,7.74-16.12l3.83-1.57c2.68-1.1,4.41-3.68,4.41-6.57v-10.04c0-23.23,18.9-42.12,42.12-42.12h18.72c23.23,0,42.12,18.9,42.12,42.12v10.04c0,2.89,1.73,5.47,4.41,6.57l3.83,1.57c6.36,2.6,9.68,9.54,7.74,16.12l-2.9,9.84c-.65,2.22-.19,4.62,1.25,6.43l4.49,5.65c4.28,5.38,3.72,13.3-1.29,18.01-2.7,2.54-3,6.66-.7,9.57,4.77,6.03,3.76,13.51-.77,18.04h0ZM84.66,162.23c-.47-1.66-2.19-2.62-3.85-2.15-1.66.47-2.62,2.19-2.15,3.85l9.36,33.15c.47,1.66,2.19,2.62,3.85,2.15,1.66-.47,2.62-2.19,2.15-3.85l-9.36-33.15Z"/>
  <circle class="cls-1" cx="78.79" cy="68.14" r="5"/>
  <circle class="cls-1" cx="99.79" cy="57.14" r="5"/>
  <circle class="cls-1" cx="82.79" cy="47.14" r="5"/>
  <circle class="cls-1" cx="112.79" cy="49.14" r="5"/>
  <circle class="cls-1" cx="98.79" cy="37.14" r="5"/>
</svg>