<?xml version="1.0" encoding="UTF-8"?>
<svg id="Layer_1" xmlns="http://www.w3.org/2000/svg" viewBox="0 0 226.9 211.49">
  <defs>
    <style>
      .cls-1 {
        fill: #fff;
      }
    </style>
  </defs>
  <g>
    <path class="cls-1" d="M202.85,204.68c-2.68-11.47-11.81-20.36-23.25-22.67l-36.5-7.35c-3.26-.69-5.63-3.64-5.63-7.02v-13.82l9.08-7.95c1.25-1.09,1.38-2.99.28-4.24-1.09-1.25-2.99-1.38-4.24-.28l-14.98,13.1c-2.62,2.29-5.97,3.55-9.45,3.55h-9.44c-3.48,0-6.83-1.26-9.45-3.55l-16.17-14.15c-5-4.38-7.87-10.69-7.87-17.33v-10.07c0-1.66-1.35-3.01-3.01-3.01s-3.01,1.35-3.01,3.01v5.64c-5.99-3.71-9.7-10.25-9.7-17.49,0-3.52,2.86-6.38,6.38-6.38h3.32v4.19c0,1.66,1.35,3.01,3.01,3.01s3.01-1.35,3.01-3.01v-4.56c5.36-1.35,9.34-6.2,9.34-11.97,0-.68-.06-1.37-.17-2.04.45-.18.9-.39,1.33-.63,2.01-1.16,3.48-3,4.2-5.13,2.77-.15,5.43-1.24,7.52-3.08,2.24.75,4.71.64,6.89-.36,5.6,3.41,12.59,3.41,18.19,0,2.17,1,4.63,1.14,6.9.37,1.15,1.02,2.49,1.82,3.95,2.35,1.15.42,2.35.66,3.56.73.2.59.45,1.16.77,1.7,1.09,1.89,2.79,3.3,4.76,4.06-.11.67-.17,1.36-.17,2.05,0,5.77,3.98,10.63,9.34,11.97v28.66c0,2.83-.52,5.62-1.54,8.27-.6,1.55.18,3.29,1.73,3.89.35.14.72.2,1.08.2,1.21,0,2.35-.73,2.81-1.93.99-2.58,1.6-5.27,1.83-8,9.49-4.2,15.62-13.41,15.81-23.82,2.4-1.45,4.23-3.67,5.19-6.32,1.18-3.23.95-6.75-.57-9.77.37-.76.63-1.58.78-2.42.15-.84.18-1.69.1-2.53,2.46-2.31,3.88-5.54,3.88-8.98s-1.42-6.67-3.88-8.98c.08-.84.05-1.7-.1-2.53-.15-.84-.41-1.65-.78-2.42,1.52-3.01,1.75-6.54.57-9.77-1.18-3.23-3.62-5.78-6.72-7.11-.21-.82-.53-1.61-.96-2.35-.43-.74-.95-1.41-1.56-2,.4-3.35-.59-6.74-2.8-9.37-2.21-2.63-5.37-4.2-8.74-4.39-.48-.7-1.05-1.33-1.7-1.88-.65-.55-1.38-1-2.15-1.35-.77-3.28-2.86-6.13-5.84-7.85-2.98-1.72-6.49-2.11-9.72-1.13-.69-.49-1.44-.89-2.24-1.18-.8-.29-1.63-.47-2.48-.54-1.85-2.82-4.79-4.78-8.17-5.38-3.39-.6-6.81.24-9.52,2.26-1.63-.45-3.39-.46-5.03,0-2.7-2.02-6.13-2.86-9.52-2.26-3.39.6-6.32,2.56-8.17,5.38-.84.07-1.68.24-2.48.54-.8.29-1.55.69-2.24,1.18-3.23-.97-6.74-.59-9.72,1.13-2.98,1.72-5.07,4.56-5.84,7.85-.77.35-1.5.8-2.15,1.35s-1.22,1.18-1.7,1.88c-3.37.19-6.53,1.75-8.74,4.39-2.21,2.63-3.2,6.02-2.8,9.37-.61.59-1.13,1.27-1.56,2-.43.74-.75,1.53-.96,2.35-3.1,1.33-5.54,3.88-6.72,7.11s-.95,6.75.57,9.77c-.37.76-.63,1.58-.78,2.42-.15.84-.18,1.69-.1,2.53-2.46,2.31-3.88,5.54-3.88,8.98s1.42,6.67,3.88,8.98c-.08.84-.05,1.7.1,2.53.15.84.41,1.65.78,2.42-1.52,3.01-1.75,6.54-.57,9.77.97,2.65,2.79,4.87,5.19,6.32.19,10.41,6.32,19.63,15.82,23.83.63,7.47,4.12,14.45,9.81,19.43l10.27,8.99v13.82c0,3.38-2.37,6.34-5.6,7.02l-30.29,6.1c-1.63.33-2.68,1.91-2.35,3.54.29,1.43,1.54,2.41,2.94,2.41.2,0,.4-.02.6-.06l5.99-1.21c1.26,7.43,1.07,13.82-.56,19.02-.5,1.58.38,3.27,1.97,3.77.3.09.6.14.9.14,1.28,0,2.46-.82,2.87-2.11,1.93-6.15,2.17-13.55.72-22.01l7.65-1.54c7.34,12.42,16.53,19.57,39.37,19.57,1.76,0,3.45-.04,5.04-.12,1.66-.09,2.93-1.5,2.85-3.16-.09-1.66-1.5-2.93-3.16-2.85-1.49.08-3.08.12-4.73.12-19.07,0-26.82-4.99-33.1-14.82l4.51-.91c6.03-1.27,10.4-6.7,10.4-12.91v-8.56c3.7,3.19,8.41,4.94,13.29,4.94h9.44c4.88,0,9.59-1.75,13.29-4.94v8.56c0,6.21,4.37,11.63,10.43,12.91l4.49.9c-3.66,5.79-7.93,10.12-14.98,12.51-1.57.53-2.42,2.24-1.89,3.81.42,1.25,1.59,2.04,2.85,2.04.32,0,.64-.05.96-.16,9.99-3.38,15.29-10.02,19.33-16.94l7.64,1.54c-1.45,8.46-1.21,15.85.72,22,.4,1.28,1.59,2.11,2.87,2.11.3,0,.6-.04.9-.14,1.58-.5,2.47-2.18,1.97-3.77-1.63-5.2-1.81-11.59-.56-19.02l12.22,2.46c9.15,1.84,16.44,8.96,18.59,18.14.32,1.39,1.56,2.32,2.93,2.32.23,0,.46-.03.69-.08,1.62-.38,2.62-1.99,2.24-3.61h0ZM157.66,118.55v-23.87h3.32c3.52,0,6.38,2.86,6.38,6.38,0,7.24-3.71,13.77-9.7,17.49ZM53.01,76.83c-1.78-1.18-2.84-3.15-2.84-5.28s1.06-4.1,2.84-5.28c1.03-.69,2.24-1.05,3.49-1.05,1.66,0,3.01-1.35,3.01-3.01s-1.35-3.01-3.01-3.01c-.53,0-1.06.04-1.59.11.71-1.05.7-2.44-.06-3.47-1.27-1.72-1.59-3.94-.87-5.94.73-2,2.4-3.49,4.48-3.99,1.34-.32,2.29-1.51,2.3-2.89,0-.58.16-1.13.45-1.64s.69-.91,1.19-1.21c1.18-.7,1.74-2.12,1.35-3.44-.61-2.05-.15-4.24,1.22-5.87s3.45-2.46,5.57-2.22c1.37.16,2.67-.64,3.15-1.92.21-.55.54-1.01.98-1.38.44-.37.96-.62,1.53-.72,1.35-.26,2.36-1.4,2.44-2.77.13-2.13,1.31-4.04,3.15-5.1,1.84-1.06,4.08-1.13,5.99-.18,1.11.55,2.03,1.41,2.65,2.5.56.96,1.57,1.5,2.61,1.5.51,0,1.03-.13,1.5-.4,1.44-.83,1.93-2.67,1.1-4.11-.27-.46-.57-.9-.89-1.32,1.26.09,2.46-.61,2.98-1.79.85-1.96,2.61-3.35,4.71-3.72,2.1-.37,4.23.33,5.7,1.88.95,1,2.45,1.23,3.65.55,1.02-.57,2.26-.57,3.28,0,1.2.67,2.71.45,3.65-.55,1.47-1.55,3.6-2.25,5.7-1.88,2.1.37,3.86,1.76,4.71,3.72.51,1.18,1.71,1.88,2.98,1.79-.32.42-.62.86-.89,1.32-.83,1.44-.34,3.28,1.1,4.11.47.27.99.4,1.5.4,1.04,0,2.05-.54,2.61-1.5.62-1.08,1.53-1.94,2.64-2.49,0,0,0,0,.01,0,1.91-.95,4.15-.89,6,.18,1.84,1.06,3.02,2.97,3.15,5.1.08,1.37,1.09,2.52,2.44,2.77.57.11,1.09.35,1.53.72.44.37.77.84.98,1.38.49,1.29,1.79,2.08,3.15,1.93,2.12-.24,4.21.59,5.57,2.22,1.37,1.63,1.82,3.83,1.22,5.87-.39,1.32.16,2.74,1.35,3.44.5.3.9.7,1.19,1.21s.44,1.05.45,1.64c.02,1.38.97,2.57,2.3,2.89,2.08.5,3.75,1.99,4.48,3.99.73,2,.4,4.22-.87,5.94-.76,1.03-.77,2.42-.06,3.47-.52-.07-1.05-.11-1.59-.11-1.66,0-3.01,1.35-3.01,3.01s1.35,3.01,3.01,3.01c1.24,0,2.44.36,3.47,1.04,0,0,0,0,.01,0,1.78,1.18,2.84,3.15,2.84,5.28s-1.06,4.1-2.84,5.28c-1.15.76-1.63,2.2-1.18,3.5.19.55.24,1.12.14,1.69-.1.57-.34,1.09-.71,1.54-.87,1.07-.91,2.59-.09,3.69,1.27,1.72,1.59,3.94.87,5.94-.25.69-.62,1.32-1.08,1.88-2.12-3.81-6.18-6.4-10.84-6.4h-6.33c-3.49,0-6.33-2.84-6.33-6.33,0-1.07.26-2.09.76-3.02.53-.98.48-2.17-.13-3.09s-1.69-1.44-2.79-1.34c-1.96.22-3.58-1.46-3.68-3.44-.07-1.4.68-2.74,1.9-3.43,1.44-.82,1.95-2.66,1.13-4.1-.82-1.44-2.66-1.95-4.1-1.13-2.22,1.26-3.82,3.32-4.53,5.7-.49-.06-.97-.17-1.43-.34-1.17-.43-2.18-1.18-2.92-2.17-.97-1.31-2.81-1.61-4.15-.67-1.21.87-2.87.82-4.03-.12-1.02-.82-2.45-.88-3.54-.15-4.33,3.43-10.4,3.43-14.73,0-1.09-.73-2.52-.66-3.54.15-.17.13-.3.23-.42.29-1.13.65-2.55.58-3.62-.17-1.33-.94-3.17-.64-4.14.67-1.05,1.42-2.65,2.31-4.35,2.51-.71-2.38-2.31-4.44-4.53-5.7-1.44-.82-3.28-.31-4.1,1.13s-.31,3.28,1.13,4.1c1.22.69,1.95,2.02,1.9,3.43.04,1.24-.61,2.4-1.68,3.01-.6.35-1.3.5-2,.43-1.11-.11-2.18.41-2.8,1.33-.61.93.63,5.04.63,6.11,0,3.49-2.84,6.33-6.33,6.33h-6.33c-4.66,0-8.73,2.59-10.84,6.4-.46-.55-.83-1.18-1.08-1.88-.73-2-.4-4.22.87-5.94.82-1.11.78-2.63-.09-3.69-.37-.45-.61-.97-.71-1.54-.1-.57-.05-1.14.14-1.69.46-1.3-.03-2.74-1.18-3.5h0Z"/>
    <path class="cls-1" d="M39.12,184.95c-7.61,4.08-13.1,11.27-15.07,19.73-.38,1.62.63,3.23,2.24,3.61.23.05.46.08.69.08,1.37,0,2.6-.94,2.93-2.32,1.58-6.78,5.98-12.54,12.06-15.8,1.46-.78,2.01-2.61,1.23-4.07-.78-1.46-2.61-2.01-4.07-1.23h0Z"/>
    <path class="cls-1" d="M107.3,122.98c1.93.98,4.04,1.47,6.15,1.47s4.23-.49,6.15-1.47c1.48-.75,2.07-2.56,1.31-4.04-.75-1.48-2.56-2.07-4.04-1.31-2.14,1.09-4.7,1.09-6.84,0-1.48-.75-3.29-.17-4.04,1.31-.75,1.48-.17,3.29,1.31,4.04Z"/>
    <path class="cls-1" d="M103.1,138.99c3.24,1.95,6.79,2.93,10.35,2.93s7.11-.98,10.35-2.93c1.42-.86,1.88-2.7,1.02-4.13-.86-1.42-2.7-1.88-4.13-1.02-4.61,2.77-9.89,2.77-14.49,0-1.42-.86-3.27-.4-4.13,1.02-.86,1.42-.4,3.27,1.02,4.13h0Z"/>
    <path class="cls-1" d="M104.03,92.13c.87-1.41.44-3.26-.97-4.14-3.66-2.27-9.18-2.27-12.84,0-1.41.87-1.85,2.73-.97,4.14.57.92,1.55,1.42,2.56,1.42.54,0,1.09-.15,1.58-.45,1.7-1.05,4.8-1.05,6.51,0,1.41.88,3.27.44,4.14-.97Z"/>
    <path class="cls-1" d="M93.63,99.88v6.01c0,1.66,1.35,3.01,3.01,3.01s3.01-1.35,3.01-3.01v-6.01c0-1.66-1.35-3.01-3.01-3.01s-3.01,1.35-3.01,3.01h0Z"/>
    <path class="cls-1" d="M135.1,93.55c1.01,0,1.99-.51,2.56-1.42.87-1.41.44-3.26-.97-4.14-3.66-2.27-9.18-2.27-12.84,0-1.41.87-1.85,2.73-.97,4.14.87,1.41,2.73,1.85,4.14.97,1.7-1.05,4.8-1.05,6.51,0,.49.31,1.04.45,1.58.45h0Z"/>
    <path class="cls-1" d="M127.26,99.88v6.01c0,1.66,1.35,3.01,3.01,3.01s3.01-1.35,3.01-3.01v-6.01c0-1.66-1.35-3.01-3.01-3.01s-3.01,1.35-3.01,3.01h0Z"/>
    <path class="cls-1" d="M71.5,60.75c.77,0,1.54-.29,2.13-.88,1.17-1.17,1.17-3.08,0-4.25-.92-.92-.92-2.43,0-3.35,1.17-1.17,1.17-3.08,0-4.25-1.17-1.17-3.08-1.17-4.25,0-3.27,3.27-3.27,8.59,0,11.86.59.59,1.36.88,2.13.88h0Z"/>
    <path class="cls-1" d="M85.81,36.79c2.54,0,4.6,2.06,4.6,4.6,0,1.66,1.35,3.01,3.01,3.01s3.01-1.35,3.01-3.01c0-5.85-4.76-10.61-10.61-10.61-1.66,0-3.01,1.35-3.01,3.01s1.35,3.01,3.01,3.01Z"/>
    <path class="cls-1" d="M153.27,59.87c.59.59,1.36.88,2.13.88s1.54-.29,2.13-.88c3.27-3.27,3.27-8.59,0-11.86-1.17-1.17-3.08-1.17-4.25,0-1.17,1.17-1.17,3.08,0,4.25.92.92.92,2.43,0,3.35-1.17,1.17-1.17,3.08,0,4.25h0Z"/>
    <path class="cls-1" d="M133.48,44.4c1.66,0,3.01-1.35,3.01-3.01,0-2.54,2.06-4.6,4.6-4.6,1.66,0,3.01-1.35,3.01-3.01s-1.35-3.01-3.01-3.01c-5.85,0-10.61,4.76-10.61,10.61,0,1.66,1.35,3.01,3.01,3.01Z"/>
  </g>
  <circle class="cls-1" cx="88.7" cy="68.14" r="5"/>
  <circle class="cls-1" cx="109.7" cy="57.14" r="5"/>
  <circle class="cls-1" cx="92.7" cy="47.14" r="5"/>
  <circle class="cls-1" cx="122.7" cy="49.14" r="5"/>
  <circle class="cls-1" cx="108.7" cy="37.14" r="5"/>
</svg>