<?xml version="1.0" encoding="UTF-8"?>
<svg id="Layer_1" xmlns="http://www.w3.org/2000/svg" viewBox="0 0 226.9 211.49">
  <defs>
    <style>
      .cls-1 {
        fill: #fff;
      }

      .cls-2 {
        fill: none;
        stroke: #fff;
        stroke-linecap: round;
        stroke-linejoin: round;
        stroke-width: 6.5px;
      }
    </style>
  </defs>
  <g>
    <g>
      <path class="cls-2" d="M107.83,208.32c-2-17.1-5.79-24.56-5.79-24.56"/>
      <path class="cls-2" d="M64.86,63.3c-6.21,8.53-13.11,24.56-9.31,38.95,0,0,4.14,10.69,3.62,15.5-.52,4.81-15,19.25-14.48,21.39.52,2.14,12.41,3.21,12.41,5.35s-4.58,7-4.58,7l6.61,4.15-4.84,7.44,7.2,3.3-.15,9.78c0,2.14-.11,10.22,3,11.29,3.1,1.07,41.38-4.81,52.24-7.49"/>
      <path class="cls-2" d="M172.13,208.32l-4.87-13.55c-3.72-10.19-1.92-21.64,4.69-30.13,10.89-13.99,24.14-39.03,17.72-70.02-2.84-13.68-9.67-26.15-18.47-35.91"/>
    </g>
    <g>
      <path class="cls-2" d="M59.62,155.63l12.82.54"/>
      <path class="cls-2" d="M126.11,112.55c1.57-1.58,3.74-2.56,6.14-2.56,4.79,0,8.66,3.88,8.66,8.66v6.64c0,4.79-3.88,8.66-8.66,8.66-2.5,0-4.75-1.06-6.33-2.74"/>
    </g>
  </g>
  <path class="cls-2" d="M135.52,63.97s8.45,12.55-2.17,20.75c-11.49,8.88-8.45,18.1-8.45,18.1"/>
  <path class="cls-2" d="M133.83,141.91l34.51,26.3"/>
  <path class="cls-2" d="M119.24,25.76s10.25-3.05,21.11,1.53c10.86,4.58,17.37-3.62,17.37-3.62,3.62,11.34-10.86,39.33-37.88,28.71-27.02-10.62-41.99,7-41.99,7,0,0,1.75-14.99,17.61-19.55,21.89-6.28,10.38-35.71,10.38-35.71,0,0-6.52,20.75-33.3,30.16-25.96,9.12-11.82,34.99-11.82,34.99,0,0-13.54-8.14-10.46-24.13,3.08-15.99,25.22-16.4,26.65-33.83"/>
  <path class="cls-2" d="M144.7,61.01s27.8,6.09,38.6-14.89"/>
  <path class="cls-2" d="M157.07,50.86s15.01.81,17.86-12.58"/>
  <g>
    <circle class="cls-1" cx="114.63" cy="85.64" r="2.62"/>
    <circle class="cls-1" cx="112.97" cy="96.65" r="2.62"/>
    <circle class="cls-1" cx="106.78" cy="88.77" r="2.62"/>
    <circle class="cls-1" cx="100.26" cy="80.33" r="2.62"/>
    <circle class="cls-1" cx="90.47" cy="75.04" r="2.62"/>
    <circle class="cls-1" cx="79.56" cy="73.03" r="2.62"/>
    <circle class="cls-1" cx="69.26" cy="72.34" r="2.62"/>
    <circle class="cls-1" cx="117.8" cy="105.87" r="2.62"/>
    <circle class="cls-1" cx="123.63" cy="78.09" r="2.62"/>
    <circle class="cls-1" cx="125.56" cy="65.73" r="2.62"/>
    <circle class="cls-1" cx="116.06" cy="68.23" r="2.62"/>
    <circle class="cls-1" cx="108.27" cy="74.35" r="2.62"/>
    <circle class="cls-1" cx="99.04" cy="66.5" r="2.62"/>
    <circle class="cls-1" cx="87.06" cy="63.68" r="2.62"/>
    <circle class="cls-1" cx="107.35" cy="58.84" r="2.62"/>
  </g>
</svg>