<?xml version="1.0" encoding="UTF-8"?>
<svg id="Layer_1" xmlns="http://www.w3.org/2000/svg" viewBox="0 0 253.3 211.49">
  <defs>
    <style>
      .cls-1 {
        fill: #fff;
      }
    </style>
  </defs>
  <path class="cls-1" d="M235.77,100.38c-2.56-10.05-9.23-16.68-18.31-18.19-1.25-.21-2.51-.31-3.75-.31-9.12,0-15.96,5.39-16.25,12.82-.07,1.8.89,3.49,2.48,4.34,1.59.85,3.53.72,4.99-.33.77-.56,2.04-.9,3.32-.9,2.06,0,5.51.76,5.51,5.83,0,1.69-1.24,4.2-4.65,4.2-2.1,0-6.6-1.01-13.11-7.78-1.5-1.56-3.37-3.72-5.53-6.21-10.82-12.49-27.18-31.37-44.69-31.37-11.35,0-20.01,5.01-24.46,8.3-4.46-3.29-13.11-8.3-24.46-8.3-17.51,0-33.86,18.88-44.69,31.37-2.16,2.49-4.03,4.65-5.53,6.21-6.51,6.76-11.01,7.77-13.11,7.78-1.43,0-2.64-.46-3.48-1.34-.74-.77-1.17-1.81-1.17-2.85,0-5.07,3.45-5.83,5.51-5.83,1.28,0,2.55.35,3.32.9.82.59,1.79.89,2.76.89h.01c2.6,0,4.71-2.11,4.71-4.71,0-.19-.01-.38-.03-.57-.51-7.23-7.27-12.43-16.23-12.43-1.24,0-2.51.11-3.75.31-9.08,1.51-15.75,8.14-18.31,18.19-3.04,11.93.32,29.04,12.61,38.65,5.83,4.55,15.88,9.98,30.68,9.98,20.6,0,44.53-10.34,71.15-30.76,26.63,20.41,50.55,30.76,71.15,30.76h0c14.79,0,24.84-5.43,30.67-9.98,12.29-9.61,15.65-26.72,12.61-38.65ZM217.35,131.61c-4.66,3.64-12.76,7.98-24.87,7.98h0c-19.18,0-42.14-10.43-68.23-31.01-.86-.67-1.89-1.01-2.92-1.01s-2.06.34-2.92,1.01c-26.09,20.57-49.05,31.01-68.23,31.01-12.11,0-20.21-4.34-24.87-7.98-9.01-7.05-11.51-20.15-9.28-28.9.81-3.17,2.88-8.33,8.01-10.45-2.72,2.51-4.57,6.26-4.57,11.38,0,3.45,1.38,6.87,3.79,9.38,2.63,2.74,6.28,4.24,10.28,4.24,4.4,0,11.42-1.85,19.9-10.67,1.67-1.74,3.61-3.98,5.86-6.57,9.11-10.52,24.36-28.11,37.56-28.11,12.52,0,21.06,8.25,21.13,8.32,1.84,1.84,4.82,1.84,6.67,0,.08-.08,8.47-8.32,21.13-8.32s28.45,17.6,37.56,28.11c2.25,2.59,4.19,4.83,5.86,6.57,8.48,8.81,15.5,10.67,19.9,10.67h0c8.81,0,14.07-6.93,14.07-13.62,0-5.11-1.84-8.87-4.57-11.38,5.13,2.13,7.21,7.28,8.01,10.45,2.23,8.75-.27,21.86-9.28,28.9Z"/>
  <path class="cls-1" d="M131.87,87.68c-1.6-2.05-4.57-2.41-6.62-.81-1.71,1.34-2.7,2.38-2.8,2.49-1.78,1.9-1.69,4.89.21,6.67.91.85,2.07,1.28,3.23,1.28,1.25,0,2.5-.5,3.43-1.48,0,0,.63-.65,1.75-1.53,2.05-1.6,2.41-4.57.81-6.62Z"/>
  <path class="cls-1" d="M185.14,111.47c-1.16-1.29-2.61-3.07-4.3-5.15-8.59-10.57-21.57-26.55-35.82-26.55-1.54,0-3.1.12-4.62.36-2.57.41-4.32,2.82-3.92,5.39.41,2.57,2.82,4.33,5.39,3.92,1.04-.17,2.1-.25,3.15-.25,9.77,0,21.5,14.44,28.5,23.06,1.76,2.17,3.29,4.05,4.61,5.52.93,1.03,2.21,1.56,3.5,1.56,1.13,0,2.25-.4,3.16-1.21,1.93-1.74,2.09-4.72.34-6.66Z"/>
</svg>