<?xml version="1.0" encoding="UTF-8"?>
<svg id="Layer_1" xmlns="http://www.w3.org/2000/svg" viewBox="0 0 253.3 211.49">
  <defs>
    <style>
      .cls-1 {
        fill: #fff;
      }
    </style>
  </defs>
  <path class="cls-1" d="M117.4,107.6c1.85,0,3.69-.7,5.1-2.11l.62-.62,20.31,20.31c.7.7,1.63,1.06,2.55,1.06s1.84-.35,2.55-1.06c1.41-1.41,1.41-3.69,0-5.1l-20.31-20.31.62-.62c2.81-2.81,2.81-7.38,0-10.19l-6.7-6.7c1.14-2.64.65-5.82-1.51-7.97l-41.48-41.48c-2.12-2.12-5.26-2.64-7.87-1.55l-8.19-8.19,3.2-3.2c1.41-1.41,1.41-3.69,0-5.1-1.41-1.41-3.69-1.41-5.1,0l-23.09,23.09c-1.41,1.41-1.41,3.69,0,5.1.7.7,1.63,1.06,2.55,1.06s1.84-.35,2.55-1.06l3.2-3.2,8.19,8.19c-1.09,2.62-.57,5.75,1.55,7.87l41.48,41.48c1.41,1.4,3.25,2.11,5.1,2.11.98,0,1.96-.2,2.87-.6l6.7,6.7c1.41,1.41,3.25,2.11,5.1,2.11h0ZM123.74,94.05l-6.35,6.34-6.35-6.34,6.35-6.35,6.35,6.34s0,0,0,0ZM57.99,28.15l7.8,7.8-3.25,3.25-3.25,3.25-7.8-7.8,6.49-6.49ZM74.05,37.89l8.42,8.42-16.54,9.08-4.69-4.69,12.81-12.81ZM71.24,60.7l16.54-9.08,4.45,4.45-3.66,3.66c-1.41,1.41-1.41,3.69,0,5.1.7.7,1.63,1.06,2.55,1.06s1.84-.35,2.55-1.06l3.66-3.66,6.35,6.34-3.66,3.66c-1.41,1.41-1.41,3.69,0,5.1.7.7,1.63,1.06,2.55,1.06s1.84-.35,2.55-1.06l3.66-3.66,6.76,6.76s0,0,0,0l-12.81,12.81-31.48-31.48Z"/>
  <path class="cls-1" d="M167.07,161.46c7.98,0,14.48-7.22,14.48-16.09,0-3.99-1.28-7.73-3.63-10.67-1.9-16.47,3.2-40.23,5.53-49.83.55-2.26-.41-4.61-2.38-5.85-1.98-1.24-4.53-1.07-6.33.43-19.25,15.95-19.76,45.61-19.26,56.29-1.86,2.77-2.87,6.13-2.87,9.62,0,8.87,6.49,16.09,14.48,16.09h0ZM161.92,139.12c.57-.7.86-1.6.8-2.5-.23-3.64-.53-13.22,1.58-23.6,2.01-9.88,5.62-17.86,10.73-23.81-1.1,5.07-2.3,11.29-3.22,17.91-1.66,11.93-1.98,21.89-.92,29.6.1.74.43,1.43.94,1.98,1.59,1.69,2.5,4.13,2.5,6.67,0,4.9-3.26,8.88-7.27,8.88s-7.27-3.98-7.27-8.88c0-2.35.76-4.57,2.13-6.25h0Z"/>
  <path class="cls-1" d="M214.38,135.29h-18.56c-2.01,0-3.94.85-5.3,2.33-1.37,1.5-2.06,3.52-1.88,5.55.06.73.1,1.47.1,2.2,0,12.84-9.72,23.29-21.67,23.29s-21.68-10.45-21.68-23.29c0-.73.03-1.47.1-2.2.18-2.03-.51-4.06-1.88-5.55-1.36-1.48-3.29-2.33-5.3-2.33h-18.56c-3.97,0-7.21,3.23-7.21,7.21v40.57c0,3.97,3.23,7.21,7.21,7.21h30.89c1.99,0,3.6-1.61,3.6-3.6s-1.61-3.6-3.6-3.6h-30.89s0-40.57,0-40.57h18.54s.01.03.01.05c-.08.93-.12,1.88-.12,2.83,0,16.82,12.96,30.5,28.89,30.5s28.88-13.68,28.88-30.5c0-.94-.04-1.89-.12-2.83,0-.01,0-.04,0-.05h18.55s0,40.57,0,40.57h-30.89c-1.99,0-3.6,1.61-3.6,3.6s1.61,3.6,3.6,3.6h30.89c3.97,0,7.21-3.23,7.21-7.21v-40.57c0-3.97-3.23-7.21-7.21-7.21h0Z"/>
  <circle class="cls-1" cx="167.07" cy="186.67" r="3.6"/>
</svg>