<?xml version="1.0" encoding="UTF-8"?>
<svg id="Layer_1" xmlns="http://www.w3.org/2000/svg" viewBox="0 0 253.3 211.49">
  <defs>
    <style>
      .cls-1 {
        fill: #fff;
      }
    </style>
  </defs>
  <path class="cls-1" d="M110.23,48.39c-11.38,0-20.65,9.41-20.65,20.98v25.1c0,11.57,9.26,20.98,20.65,20.98s20.65-9.41,20.65-20.98v-25.1c0-11.57-9.26-20.98-20.65-20.98ZM120.31,94.47c0,5.74-4.52,10.41-10.08,10.41s-10.07-4.67-10.07-10.41v-25.1c0-5.74,4.52-10.41,10.07-10.41s10.08,4.67,10.08,10.41v25.1Z"/>
  <path class="cls-1" d="M197.5,74.97c-1.3-11.71-6.54-22.55-14.97-30.81-10.43-10.22-25.31-15.47-39.85-13.93-8.35-9.38-20.09-14.7-32.64-14.7-24.3,0-44.07,20.1-44.07,44.81v6.36c-16.68,2.42-29.54,17.03-29.54,34.63,0,19.29,15.44,34.98,34.43,34.98h30.7c-6.2,6.34-10.03,15-10.03,24.55,0,19.36,15.75,35.12,35.11,35.12s35.12-15.75,35.12-35.12c0-9.54-3.83-18.21-10.03-24.55h33.74c17.31,0,31.39-14.3,31.39-31.88,0-12.96-7.8-24.57-19.37-29.45h0ZM126.65,185.39c-13.53,0-24.54-11.01-24.54-24.55s11.01-24.55,24.54-24.55,24.54,11.01,24.54,24.55-11.01,24.55-24.54,24.55ZM185.48,125.72h-114.62c-13.15,0-23.86-10.95-23.86-24.41s10.7-24.41,23.86-24.41h5.68v-16.58c0-18.88,15.03-34.23,33.5-34.23,11.47,0,21.82,6.18,28.22,15.51,3.13-.6,6.53-1.08,9.65-1.08,21.15,0,38.42,16.91,39.3,38.5l.16,3.82c10.46,1.98,18.93,10.5,18.93,21.57,0,11.75-9.34,21.31-20.81,21.31Z"/>
  <path class="cls-1" d="M131.94,147.05h-10.57v8.73h-8.73v10.57h8.73v8.73h10.57v-8.73h8.73v-10.57h-8.73v-8.73Z"/>
  <path class="cls-1" d="M157.56,62.33c-4.36,0-8.43,1.73-11.46,4.86l-3.67,3.8,7.61,7.34,3.67-3.8c1.02-1.05,2.39-1.64,3.85-1.64,2.95,0,5.35,2.4,5.35,5.35s-2.4,5.35-5.35,5.35h-5.29v10.57h5.29c2.95,0,5.35,2.4,5.35,5.35s-2.4,5.35-5.35,5.35c-1.6,0-3.1-.71-4.12-1.94l-3.38-4.07-8.14,6.75,3.38,4.07c3.04,3.66,7.5,5.76,12.26,5.76,8.78,0,15.92-7.14,15.92-15.92,0-4.09-1.55-7.82-4.09-10.64,2.54-2.82,4.09-6.55,4.09-10.64,0-8.78-7.14-15.92-15.92-15.92Z"/>
</svg>